<svg xmlns="http://www.w3.org/2000/svg" width="36.5" height="36.5" viewBox="0 0 36.5 36.5"><defs><style>.a{fill:#fff;}</style></defs><path class="a" d="M21.625,3.375a18.25,18.25,0,1,0,18.25,18.25A18.247,18.247,0,0,0,21.625,3.375Zm1.509,9.616-.272,10.1a1.256,1.256,0,0,1-1.237,1.3h0a1.256,1.256,0,0,1-1.237-1.3l-.272-10.1a1.511,1.511,0,0,1,1.509-1.544h0A1.511,1.511,0,0,1,23.134,12.991ZM21.625,30.224A1.616,1.616,0,1,1,23.3,28.609,1.63,1.63,0,0,1,21.625,30.224Z" transform="translate(-3.375 -3.375)"/></svg>